Motion_pl11
version=1
nRows=5
nColumns=43
inDegrees=yes
endheader
time	pelvis_tilt	pelvis_list	pelvis_rotation	pelvis_tx	pelvis_ty	pelvis_tz	hip_flexion_r	hip_adduction_r	hip_rotation_r	knee_angle_r	ankle_angle_r	subtalar_angle_r	mtp_angle_r	hip_flexion_l	hip_adduction_l	hip_rotation_l	knee_angle_l	ankle_angle_l	subtalar_angle_l	mtp_angle_l	lumbar_extension	lumbar_bending	lumbar_rotation	neck_flexion	neck_lateral_bending	neck_rotation	arm_flex_r	arm_add_r	arm_rot_r	elbow_flex_r	pro_sup_r	wrist_flex_r	wrist_dev_r	hand_finger_flex_r	arm_flex_l	arm_add_l	arm_rot_l	elbow_flex_l	pro_sup_l	wrist_flex_l	wrist_dev_l	hand_finger_flex_l
      0.65750000	     -0.84838235	    -14.42773966	     91.02282316	      0.01690617	      1.89889289	      1.40663361	     41.81921119	     -4.97923450	      3.15730213	   -107.63194285	     -7.27599276	      4.72608718	      3.31113734	     43.34944755	     -1.81067868	      2.76114952	   -109.90488677	     -3.37178848	    -19.98945893	     14.85048946	    -41.59495501	     -2.10861608	      5.29462102	     14.00428384	      0.19433057	     -6.32217154	    137.57585478	     -8.92793215	     41.11668884	     49.37024232	     68.66302476	    -31.80985934	     -6.19151714	     23.82147069	    132.85125968	      0.54977551	     22.03018942	     54.25903765	    113.85823874	    -23.48614881	     12.48473764	     87.53740620
      0.66000000	     -0.55582752	    -14.50317805	     91.33429102	      0.01642035	      1.89851276	      1.40250161	     42.23275752	     -4.86035577	      2.65853684	   -107.78552050	     -6.57995978	      4.66657459	      2.76528640	     43.97941288	     -1.86635539	      2.87424952	   -110.13973287	     -4.09115908	    -22.20721581	     13.43603306	    -41.47105790	     -1.70156832	      5.29525076	     13.74986531	      0.23432811	     -6.37729277	    137.32662838	     -9.09796708	     41.29774916	     49.59408832	     69.13611516	    -32.09963250	     -6.20386776	     23.68574547	    132.50804613	      0.47391028	     22.07674386	     54.33613282	    113.82045494	    -23.72341407	     12.18884788	     86.74686853
      0.66250000	     -0.56269237	    -14.31227720	     91.36234656	      0.01621490	      1.89859097	      1.39819116	     42.47980708	     -4.86590919	      2.53757249	   -107.93212224	     -6.47718112	      4.58673798	      2.65691246	     44.18894636	     -1.82959235	      2.78460267	   -110.34112694	     -3.89480190	    -22.50952584	     13.18411191	    -41.71839316	     -1.64989545	      5.26986892	     13.80981769	      0.00408763	     -6.30014291	    137.13311716	     -9.28161621	     41.32902210	     49.94136809	     69.22272516	    -32.07633390	     -6.28825371	     23.70843230	    132.35886524	      0.36665526	     22.11803429	     54.34372655	    113.82923795	    -23.72539656	     12.15173676	     86.63840333
      0.66500000	     -0.64315723	    -14.36937060	     91.45593827	      0.01562712	      1.89810414	      1.39420515	     43.09087819	     -4.99797018	      2.46899654	   -108.23682991	     -5.98421193	      4.62704252	     -0.19791423	     44.75422484	     -1.57829711	      2.55704151	   -110.60350610	     -3.37479419	    -23.54132684	      5.98109135	    -41.65184696	     -1.59652938	      5.14133131	     13.68120288	     -0.01275632	     -6.39818477	    136.88396984	     -9.35500975	     41.22477504	     50.04925064	     70.10469934	    -32.06747507	     -5.89583195	     23.91413740	    131.99321735	      0.20638434	     22.14215405	     54.53611161	    113.68171918	    -23.35139631	     11.82472515	     84.62297972
      0.66750000	     -0.60491463	    -14.12412365	     91.47972482	      0.01555837	      1.89809785	      1.38982550	     43.30050660	     -4.95900979	      2.28377493	   -108.38612496	     -5.89996716	      4.43521543	     -0.20189884	     44.93481685	     -1.62435836	      2.46688307	   -110.81875428	     -3.28659867	    -23.80367145	      5.88261278	    -41.94467948	     -1.54285150	      5.10827975	     13.66715217	     -0.08049862	     -6.32345779	    136.64099543	     -9.54529341	     41.25811748	     50.37549205	     70.17140426	    -32.12527989	     -6.05625743	     23.89448659	    131.78991752	      0.11327253	     22.14773819	     54.56969609	    113.70095369	    -23.33974653	     11.82563127	     84.65244534
